<svg xmlns="http://www.w3.org/2000/svg" viewBox="0 0 36 34"><rect width="36" height="34" style="fill:#fff;opacity:0"/><path d="M3.59,9,6.66,5.94a.24.24,0,0,1,.35,0l.42.41a.26.26,0,0,1,0,.35L5,9.2l2.48,2.5a.27.27,0,0,1,0,.36L7,12.47a.24.24,0,0,1-.35,0L3.59,9.38A.27.27,0,0,1,3.59,9Z" transform="translate(0 0)" style="fill:#f0f5fa"/><path d="M32.41,9.36l-3.07,3.09a.24.24,0,0,1-.35,0L28.57,12a.26.26,0,0,1,0-.35l2.48-2.5-2.48-2.5a.26.26,0,0,1,0-.35L29,5.91a.26.26,0,0,1,.35,0L32.41,9A.27.27,0,0,1,32.41,9.36Z" transform="translate(0 0)" style="fill:#f0f5fa"/><path d="M25.31,2H10.69A1.69,1.69,0,0,0,9,3.69V13.81a1.69,1.69,0,0,0,1.69,1.69H25.31A1.69,1.69,0,0,0,27,13.81V3.69A1.69,1.69,0,0,0,25.31,2ZM25.1,13.81H10.9a.21.21,0,0,1-.21-.21V3.9a.21.21,0,0,1,.21-.21H25.1a.21.21,0,0,1,.21.21v9.7A.21.21,0,0,1,25.1,13.81ZM13.5,5.09A1.41,1.41,0,1,0,14.91,6.5,1.41,1.41,0,0,0,13.5,5.09Zm-1.12,7H23.62V9.31L20.55,6.24a.42.42,0,0,0-.6,0l-4.2,4.2L14.36,9.05a.42.42,0,0,0-.6,0l-1.38,1.39Z" transform="translate(0 0)" style="fill:#f0f5fa"/></svg>