<?xml version="1.0" encoding="UTF-8"?><svg id="a" xmlns="http://www.w3.org/2000/svg" viewBox="0 0 36 34"><rect y="0" width="36" height="34" style="fill:#fff; opacity:0;"/><g id="b"><path d="M27.04,2.92h-3.69v-1.67C23.35.56,22.79,0,22.09,0s-1.25.56-1.25,1.25v1.67h-5.68v-1.67C15.16.56,14.6,0,13.91,0s-1.25.56-1.25,1.25v1.67h-3.69c-.53,0-.96.43-.96.96v16.21c0,.53.43.96.96.96h18.08c.53,0,.96-.43.96-.96V3.88c0-.53-.43-.96-.96-.96ZM25.74,16.45c0,.26-.16.63-.35.81l-1.43,1.36c-.19.18-.56.33-.83.33h-12.4c-.26,0-.48-.22-.48-.48v-9.67c0-.26.22-.48.48-.48h14.53c.26,0,.48.22.48.48v7.64Z" style="fill:#f0f5fa;"/><rect x="12.38" y="9.68" width="2.94" height="2.94" style="fill:#f0f5fa;"/><rect x="16.53" y="9.68" width="2.94" height="2.94" style="fill:#f0f5fa;"/><rect x="20.68" y="9.68" width="2.94" height="2.94" style="fill:#f0f5fa;"/><rect x="12.38" y="14.2" width="2.94" height="2.94" style="fill:#f0f5fa;"/><rect x="16.53" y="14.2" width="2.94" height="2.94" style="fill:#f0f5fa;"/><rect x="20.68" y="14.2" width="2.94" height="2.94" style="fill:#f0f5fa;"/></g></svg>