<svg xmlns="http://www.w3.org/2000/svg" viewBox="0 0 36 34"><rect width="36" height="34" style="fill:#fff;opacity:0"/><path d="M11,9A2,2,0,1,0,9,7,2,2,0,0,0,11,9ZM25,9a2,2,0,1,0-2-2A2,2,0,0,0,25,9Zm1,1H24a2,2,0,0,0-1.41.58A4.59,4.59,0,0,1,24.94,14H27a1,1,0,0,0,1-1V12A2,2,0,0,0,26,10Zm-8,0a3.5,3.5,0,1,0-3.5-3.5A3.5,3.5,0,0,0,18,10Zm2.4,1h-.26a4.83,4.83,0,0,1-4.28,0H15.6A3.6,3.6,0,0,0,12,14.6v.9A1.5,1.5,0,0,0,13.5,17h9A1.5,1.5,0,0,0,24,15.5v-.9A3.6,3.6,0,0,0,20.4,11Zm-7-.42A2,2,0,0,0,12,10H10a2,2,0,0,0-2,2v1a1,1,0,0,0,1,1h2.06a4.59,4.59,0,0,1,2.35-3.42Z" transform="translate(0 0)" style="fill:#f0f5fa"/></svg>