<svg xmlns="http://www.w3.org/2000/svg" viewBox="0 0 36 34"><rect width="36" height="34" style="fill:#fff;opacity:0"/><path d="M28,8.33a2.2,2.2,0,0,0-1.11-1.91V1.11A1.12,1.12,0,0,0,25.78,0a1.14,1.14,0,0,0-.7.24L22.13,2.61a8.43,8.43,0,0,1-5.24,1.83H10.22A2.22,2.22,0,0,0,8,6.67V10a2.21,2.21,0,0,0,2.22,2.22h1.17a8.27,8.27,0,0,0-.07,1.11,8.92,8.92,0,0,0,.88,3.86,1.1,1.1,0,0,0,1,.59h2.58a1.11,1.11,0,0,0,.9-1.76,4.41,4.41,0,0,1-.91-2.69,4.57,4.57,0,0,1,.15-1.11h1a8.44,8.44,0,0,1,5.24,1.84l2.95,2.36a1.13,1.13,0,0,0,.7.25,1.12,1.12,0,0,0,1.11-1.11V10.25A2.23,2.23,0,0,0,28,8.33Zm-3.33,4.91-1.15-.91A10.67,10.67,0,0,0,16.89,10V6.67a10.67,10.67,0,0,0,6.63-2.33l1.15-.92Z" transform="translate(0 0)" style="fill:#f0f5fa"/></svg>