<?xml version="1.0" encoding="UTF-8"?><svg id="a" xmlns="http://www.w3.org/2000/svg" viewBox="0 0 36 34"><rect y="0" width="36" height="34" style="fill:#fff; opacity:0;"/><path d="M20.07,21.45h-4.15c-.48,0-.87.39-.87.87s.39.87.87.87h4.15c.48,0,.87-.39.87-.87s-.39-.87-.87-.87Z" style="fill:#f0f5fa;"/><path d="M18,0c-4.69,0-8.5,3.81-8.5,8.5,0,1.89.61,3.67,1.75,5.17.27.41.6.78.91,1.14.98,1.13,1.9,2.2,1.9,4.61,0,.48.39.87.87.87h6.13c.48,0,.87-.39.87-.87,0-2.4.92-3.47,1.9-4.61.31-.36.63-.74.91-1.14,1.15-1.5,1.76-3.28,1.76-5.17,0-4.69-3.81-8.5-8.5-8.5ZM23.78,12h-.01s-.35.52-.35.52c-.04.05-.07.11-.11.16,0,0,0,.01-.01.02-.22.32-.49.64-.78.98-.93,1.08-2.07,2.4-2.29,4.87h-.33v-6.1l2.69-2.62s0-.02.02-.03c.32-.32.51-.76.51-1.25,0-.98-.8-1.78-1.78-1.78s-1.78.8-1.78,1.78c0,.66.36,1.23.9,1.54l-1.65,1.61c-.13.12-.2.29-.2.47v6.38h-1.18v-6.38c0-.18-.07-.34-.2-.47l-1.65-1.61c.53-.31.9-.88.9-1.54,0-.98-.8-1.78-1.78-1.78s-1.78.8-1.78,1.78c0,.49.2.93.51,1.25,0,0,0,.02.02.02l2.69,2.62v6.1h-.33c-.22-2.48-1.36-3.79-2.29-4.87-.29-.34-.57-.66-.78-.98,0,0,0-.01-.01-.02-.04-.06-.07-.11-.11-.16l-.35-.52h-.01c-.64-1.05-.98-2.24-.98-3.49,0-3.73,3.03-6.76,6.76-6.76s6.76,3.03,6.76,6.76c0,1.25-.34,2.45-.98,3.5Z" style="fill:#f0f5fa;"/></svg>