<?xml version="1.0" encoding="UTF-8"?><svg id="a" xmlns="http://www.w3.org/2000/svg" viewBox="0 0 36 34"><rect y="0" width="36" height="34" style="fill:#fff; opacity:0;"/><rect x="12.7" y="5.35" width="10.6" height="10.6" rx=".46" ry=".46" style="fill:#f0f5fa;"/><path d="M28.09,9.77c.31,0,.55-.25.55-.55s-.25-.55-.55-.55h-1.71v-1.75h1.71c.31,0,.55-.25.55-.55s-.25-.55-.55-.55h-1.71v-2.81c0-.41-.33-.74-.74-.74h-2.81V.55c0-.31-.25-.55-.55-.55s-.55.25-.55.55v1.71h-1.75V.55c0-.31-.25-.55-.55-.55s-.55.25-.55.55v1.71h-1.75V.55c0-.31-.25-.55-.55-.55s-.55.25-.55.55v1.71h-1.75V.55c0-.31-.25-.55-.55-.55s-.55.25-.55.55v1.71h-2.81c-.41,0-.74.33-.74.74v2.81h-1.71c-.31,0-.55.25-.55.55s.25.55.55.55h1.71v1.75h-1.71c-.31,0-.55.25-.55.55s.25.55.55.55h1.71v1.75h-1.71c-.31,0-.55.25-.55.55s.25.55.55.55h1.71v1.75h-1.71c-.31,0-.55.25-.55.55s.25.55.55.55h1.71v2.81c0,.41.33.74.74.74h2.81v1.71c0,.31.25.55.55.55s.55-.25.55-.55v-1.71h1.75v1.71c0,.31.25.55.55.55s.55-.25.55-.55v-1.71h1.75v1.71c0,.31.25.55.55.55s.55-.25.55-.55v-1.71h1.75v1.71c0,.31.25.55.55.55s.55-.25.55-.55v-1.71h2.81c.41,0,.74-.33.74-.74v-2.81h1.71c.31,0,.55-.25.55-.55s-.25-.55-.55-.55h-1.71v-1.75h1.71c.31,0,.55-.25.55-.55s-.25-.55-.55-.55h-1.71v-1.75h1.71ZM24.91,17.56h-13.82V3.74h13.82v13.82Z" style="fill:#f0f5fa;"/></svg>