<svg xmlns="http://www.w3.org/2000/svg" viewBox="0 0 36 34"><rect width="36" height="34" style="fill:#fff;opacity:0"/><path d="M26.31,0H9.69A1.69,1.69,0,0,0,8,1.69V8.81A1.69,1.69,0,0,0,9.69,10.5H26.31A1.69,1.69,0,0,0,28,8.81V1.69A1.69,1.69,0,0,0,26.31,0ZM26.1,8.81H9.9a.21.21,0,0,1-.21-.21V1.9a.21.21,0,0,1,.21-.21H26.1a.21.21,0,0,1,.21.21V8.6A.21.21,0,0,1,26.1,8.81ZM11.38,7.12H24.62V5.31L20.55,3.24a.42.42,0,0,0-.6,0l-5.2,3.2L13.36,5.05a.42.42,0,0,0-.6,0L11.38,6.44Z" transform="translate(0 0)" style="fill:#f0f5fa"/><path d="M19.88,18.25H10.12a.38.38,0,0,0-.37.37v.76a.38.38,0,0,0,.37.37h9.76a.38.38,0,0,0,.37-.37v-.76A.38.38,0,0,0,19.88,18.25Zm6-3H10.12a.38.38,0,0,0-.37.37v.76a.38.38,0,0,0,.37.37H25.88a.38.38,0,0,0,.37-.37v-.76A.38.38,0,0,0,25.88,15.25Zm0-3H10.12a.38.38,0,0,0-.37.37v.76a.38.38,0,0,0,.37.37H25.88a.38.38,0,0,0,.37-.37v-.76A.38.38,0,0,0,25.88,12.25Z" transform="translate(0 0)" style="fill:#f0f5fa"/></svg>