<svg id="a" xmlns="http://www.w3.org/2000/svg" viewBox="0 0 150 33.18"><path d="M97.35 14.61c0-1.4-1.13-2.55-2.55-2.55s-2.55 1.13-2.55 2.55 1.13 2.55 2.55 2.55 2.55-1.13 2.55-2.55m-5.65 0c0-1.71 1.4-3.1 3.1-3.1s3.1 1.4 3.1 3.1-1.4 3.1-3.1 3.1-3.1-1.4-3.1-3.1" fill="#b7d3ff"/><path d="M108.86 14.61c0-7.76-6.32-14.06-14.06-14.06S80.74 6.87 80.74 14.61s6.32 14.06 14.06 14.06 14.06-6.32 14.06-14.06m-28.67 0C80.19 6.54 86.75 0 94.8 0s14.61 6.56 14.61 14.61-6.56 14.61-14.61 14.61-14.61-6.56-14.61-14.61" fill="#b7d3ff"/><path d="M106 14.61c0-6.16-5.01-11.18-11.18-11.18S83.64 8.44 83.64 14.61s5.01 11.18 11.18 11.18S106 20.78 106 14.61m-22.93 0c0-6.48 5.28-11.73 11.73-11.73s11.73 5.28 11.73 11.73-5.28 11.73-11.73 11.73-11.73-5.28-11.73-11.73" fill="#b7d3ff"/><path d="M103.12 14.61c0-4.59-3.73-8.32-8.32-8.32s-8.32 3.73-8.32 8.32 3.73 8.32 8.32 8.32 8.32-3.73 8.32-8.32m-17.19 0c0-4.88 3.97-8.87 8.87-8.87s8.87 3.97 8.87 8.87-3.97 8.87-8.87 8.87-8.87-3.97-8.87-8.87" fill="#b7d3ff"/><path d="M100.24 14.61c0-2.99-2.44-5.43-5.43-5.43s-5.43 2.44-5.43 5.43 2.44 5.43 5.43 5.43 5.43-2.44 5.43-5.43m-11.42 0c0-3.3 2.68-5.99 5.99-5.99s5.99 2.68 5.99 5.99-2.68 5.99-5.99 5.99-5.99-2.68-5.99-5.99" fill="#b7d3ff"/><path d="M88.82 14.61C88.82 6.85 82.5.55 74.76.55S60.7 6.87 60.7 14.61s6.32 14.06 14.06 14.06 14.06-6.32 14.06-14.06m-28.68 0C60.14 6.54 66.7 0 74.75 0s14.61 6.56 14.61 14.61-6.56 14.61-14.61 14.61-14.61-6.56-14.61-14.61" fill="#66a2ff"/><path d="M85.93 14.61c0-6.16-5.01-11.18-11.18-11.18S63.57 8.44 63.57 14.61s5.01 11.18 11.18 11.18 11.18-5.01 11.18-11.18m-22.91 0c0-6.48 5.28-11.73 11.73-11.73s11.73 5.28 11.73 11.73-5.28 11.73-11.73 11.73-11.73-5.28-11.73-11.73" fill="#66a2ff"/><path d="M83.07 14.61c0-4.59-3.73-8.32-8.32-8.32s-8.32 3.73-8.32 8.32 3.73 8.32 8.32 8.32 8.32-3.73 8.32-8.32m-17.18 0c0-4.88 3.97-8.87 8.87-8.87s8.87 3.97 8.87 8.87-3.97 8.87-8.87 8.87-8.87-3.97-8.87-8.87" fill="#66a2ff"/><path d="M80.19 14.61c0-2.99-2.44-5.43-5.43-5.43s-5.43 2.44-5.43 5.43 2.44 5.43 5.43 5.43 5.43-2.44 5.43-5.43m-11.42 0c0-3.3 2.68-5.99 5.99-5.99s5.99 2.68 5.99 5.99-2.68 5.99-5.99 5.99-5.99-2.68-5.99-5.99" fill="#66a2ff"/><path d="M68.77 14.61C68.77 6.85 62.45.55 54.71.55S40.65 6.87 40.65 14.61s6.32 14.06 14.06 14.06 14.06-6.32 14.06-14.06m-28.68 0C40.09 6.54 46.65 0 54.7 0s14.61 6.56 14.61 14.61-6.56 14.61-14.61 14.61-14.61-6.56-14.61-14.61" fill="#0066fd"/><path d="M65.89 14.61c0-6.16-5.01-11.18-11.18-11.18S43.53 8.44 43.53 14.61s5.01 11.18 11.18 11.18 11.18-5.01 11.18-11.18m-22.91 0c0-6.48 5.28-11.73 11.73-11.73s11.73 5.28 11.73 11.73-5.28 11.73-11.73 11.73-11.73-5.28-11.73-11.73" fill="#0066fd"/><path d="M63.02 14.61c0-4.59-3.73-8.32-8.32-8.32s-8.32 3.73-8.32 8.32 3.73 8.32 8.32 8.32 8.32-3.73 8.32-8.32m-17.18 0c0-4.88 3.97-8.87 8.87-8.87s8.87 3.97 8.87 8.87-3.97 8.87-8.87 8.87-8.87-3.97-8.87-8.87" fill="#0066fd"/><path d="M48.72 14.61C48.72 6.85 42.4.55 34.66.55S20.6 6.87 20.6 14.61s6.32 14.06 14.06 14.06 14.06-6.32 14.06-14.06m-28.67 0C20.05 6.54 26.61 0 34.66 0s14.61 6.56 14.61 14.61-6.56 14.61-14.61 14.61-14.61-6.56-14.61-14.61" fill="#003eff"/><path d="M45.84 14.61c0-6.16-5.01-11.18-11.18-11.18S23.48 8.44 23.48 14.61s5.01 11.18 11.18 11.18 11.18-5.01 11.18-11.18m-22.91 0c0-6.48 5.28-11.73 11.73-11.73s11.73 5.28 11.73 11.73-5.28 11.73-11.73 11.73-11.73-5.28-11.73-11.73" fill="#003eff"/><path d="M28.67 14.61C28.67 6.85 22.35.55 14.61.55S.55 6.87.55 14.61s6.32 14.06 14.06 14.06 14.06-6.32 14.06-14.06M0 14.61C0 6.54 6.56 0 14.61 0s14.61 6.56 14.61 14.61-6.56 14.61-14.61 14.61S0 22.66 0 14.61" fill="#021bc3"/></svg>