<svg id="a" xmlns="http://www.w3.org/2000/svg" viewBox="0 0 150 97"><path d="M59.99 41.4c0-3.57 1.88-6.08 6.25-6.34 4.28.09 7.23 1.69 9.74 4.19l5.43 6.34h.62l-1.88-9.2c-4.19-1.6-9-3.13-11.42-3.22-8.74 1.6-14.37 6.96-14.37 13.13 0 11.33 22.66 12.49 22.66 20.89s-3.3 8.56-7.14 8.56c-3.39-.09-7.85-2.59-10.53-4.99l-4.19-9.18-.62.09-.18 10.36c1.51 1.51 8.56 5.43 13.31 5.43 9.47-1.6 15.97-5.72 15.97-14.1C83.82 52.21 60 49.52 60 41.41m25.84 34.81h19.8v-.44l-5.9-.98V34.46l-1.06-.18H86.73v.53l5.08.98V74.8l-5.99.98v.44h.02zm48.7-27.06c0 8.21-4.1 13.75-10.09 13.75s-9.74-6.08-9.74-14.99 3.75-13.22 9.74-13.22 10.09 4.63 10.09 14.46m-15.9 27.24c14.55.09 22.49.98 22.49 8.21s-3.75 10.09-16.23 9.74c-5.63-.18-10.53-3.84-10.53-9.82s1.24-5.34 4.28-8.12m31.33-41.88l-4.72-1.33c0 2.24-2.95 2.59-4.99 2.59s-4.19-.27-6.25-.89c-2.51-1.06-5.54-1.69-8.91-1.69-5.43 0-18.47 7.41-18.47 16.41s3.66 11.15 9.91 13.48c-1.88 2.06-4.37 4.19-5.81 6.7 0 2.86 3.3 6.61 5.34 6.61h.53c-3.39 2.33-7.5 4.37-10.53 6.87 0 7.85 2.51 12.66 18.03 13.22 1.15 0 2.33 0 3.48-.09 3.3 0 20.07-5.63 20.27-14.1.18-9.2-8.29-11.33-20.16-11.78-2.24-.09-10.09-.44-10.89-.53-1.06-.09-2.15-.44-2.15-1.88.09-2.33 1.33-3.48 2.77-4.63 2.06.62 4.37.98 6.87.98 4.99 0 18.38-9.38 18.38-16.88s-1.88-7.94-5.08-10.53c.35-.09.8-.09 1.24-.09 1.06 0 6.79 1.69 8.29 1.69 1.15-.09 2.24-1.33 2.86-4.1M97.35 14.61c0-1.4-1.13-2.55-2.55-2.55s-2.55 1.13-2.55 2.55 1.13 2.55 2.55 2.55 2.55-1.13 2.55-2.55m-5.65 0c0-1.71 1.4-3.1 3.1-3.1s3.1 1.4 3.1 3.1-1.4 3.1-3.1 3.1-3.1-1.4-3.1-3.1" fill="#fff"/><path d="M108.86 14.61c0-7.76-6.32-14.06-14.06-14.06S80.74 6.87 80.74 14.61s6.32 14.06 14.06 14.06 14.06-6.32 14.06-14.06m-28.67 0C80.19 6.54 86.75 0 94.8 0s14.61 6.56 14.61 14.61-6.56 14.61-14.61 14.61-14.61-6.56-14.61-14.61" fill="#fff"/><path d="M106 14.61c0-6.16-5.01-11.18-11.18-11.18S83.64 8.44 83.64 14.61s5.01 11.18 11.18 11.18S106 20.78 106 14.61m-22.93 0c0-6.48 5.28-11.73 11.73-11.73s11.73 5.28 11.73 11.73-5.28 11.73-11.73 11.73-11.73-5.28-11.73-11.73" fill="#fff"/><path d="M103.12 14.61c0-4.59-3.73-8.32-8.32-8.32s-8.32 3.73-8.32 8.32 3.73 8.32 8.32 8.32 8.32-3.73 8.32-8.32m-17.19 0c0-4.88 3.97-8.87 8.87-8.87s8.87 3.97 8.87 8.87-3.97 8.87-8.87 8.87-8.87-3.97-8.87-8.87" fill="#fff"/><path d="M100.24 14.61c0-2.99-2.44-5.43-5.43-5.43s-5.43 2.44-5.43 5.43 2.44 5.43 5.43 5.43 5.43-2.44 5.43-5.43m-11.42 0c0-3.3 2.68-5.99 5.99-5.99s5.99 2.68 5.99 5.99-2.68 5.99-5.99 5.99-5.99-2.68-5.99-5.99" fill="#fff"/><path d="M88.82 14.61C88.82 6.85 82.5.55 74.76.55S60.7 6.87 60.7 14.61s6.32 14.06 14.06 14.06 14.06-6.32 14.06-14.06m-28.68 0C60.14 6.54 66.7 0 74.75 0s14.61 6.56 14.61 14.61-6.56 14.61-14.61 14.61-14.61-6.56-14.61-14.61" fill="#fff"/><path d="M85.93 14.61c0-6.16-5.01-11.18-11.18-11.18S63.57 8.44 63.57 14.61s5.01 11.18 11.18 11.18 11.18-5.01 11.18-11.18m-22.91 0c0-6.48 5.28-11.73 11.73-11.73s11.73 5.28 11.73 11.73-5.28 11.73-11.73 11.73-11.73-5.28-11.73-11.73" fill="#fff"/><path d="M83.07 14.61c0-4.59-3.73-8.32-8.32-8.32s-8.32 3.73-8.32 8.32 3.73 8.32 8.32 8.32 8.32-3.73 8.32-8.32m-17.18 0c0-4.88 3.97-8.87 8.87-8.87s8.87 3.97 8.87 8.87-3.97 8.87-8.87 8.87-8.87-3.97-8.87-8.87" fill="#fff"/><path d="M80.19 14.61c0-2.99-2.44-5.43-5.43-5.43s-5.43 2.44-5.43 5.43 2.44 5.43 5.43 5.43 5.43-2.44 5.43-5.43m-11.42 0c0-3.3 2.68-5.99 5.99-5.99s5.99 2.68 5.99 5.99-2.68 5.99-5.99 5.99-5.99-2.68-5.99-5.99" fill="#fff"/><path d="M68.77 14.61C68.77 6.85 62.45.55 54.71.55S40.65 6.87 40.65 14.61s6.32 14.06 14.06 14.06 14.06-6.32 14.06-14.06m-28.68 0C40.09 6.54 46.65 0 54.7 0s14.61 6.56 14.61 14.61-6.56 14.61-14.61 14.61-14.61-6.56-14.61-14.61" fill="#fff"/><path d="M65.89 14.61c0-6.16-5.01-11.18-11.18-11.18S43.53 8.44 43.53 14.61s5.01 11.18 11.18 11.18 11.18-5.01 11.18-11.18m-22.91 0c0-6.48 5.28-11.73 11.73-11.73s11.73 5.28 11.73 11.73-5.28 11.73-11.73 11.73-11.73-5.28-11.73-11.73" fill="#fff"/><path d="M63.02 14.61c0-4.59-3.73-8.32-8.32-8.32s-8.32 3.73-8.32 8.32 3.73 8.32 8.32 8.32 8.32-3.73 8.32-8.32m-17.18 0c0-4.88 3.97-8.87 8.87-8.87s8.87 3.97 8.87 8.87-3.97 8.87-8.87 8.87-8.87-3.97-8.87-8.87" fill="#fff"/><path d="M48.72 14.61C48.72 6.85 42.4.55 34.66.55S20.6 6.87 20.6 14.61s6.32 14.06 14.06 14.06 14.06-6.32 14.06-14.06m-28.67 0C20.05 6.54 26.61 0 34.66 0s14.61 6.56 14.61 14.61-6.56 14.61-14.61 14.61-14.61-6.56-14.61-14.61" fill="#fff"/><path d="M45.84 14.61c0-6.16-5.01-11.18-11.18-11.18S23.48 8.44 23.48 14.61s5.01 11.18 11.18 11.18 11.18-5.01 11.18-11.18m-22.91 0c0-6.48 5.28-11.73 11.73-11.73s11.73 5.28 11.73 11.73-5.28 11.73-11.73 11.73-11.73-5.28-11.73-11.73" fill="#fff"/><path d="M28.67 14.61C28.67 6.85 22.35.55 14.61.55S.55 6.87.55 14.61s6.32 14.06 14.06 14.06 14.06-6.32 14.06-14.06M0 14.61C0 6.54 6.56 0 14.61 0s14.61 6.56 14.61 14.61-6.56 14.61-14.61 14.61S0 22.66 0 14.61" fill="#fff"/></svg>