<svg id="footer-circles" xmlns="http://www.w3.org/2000/svg" viewBox="0 0 1688 650"><g id="footer-circle-right" fill="#fff"><path d="M1363 4.5c43.34 0 85.37 8.49 124.95 25.22 38.22 16.17 72.55 39.31 102.03 68.79 29.48 29.48 52.63 63.81 68.79 102.03 16.74 39.57 25.22 81.61 25.22 124.95s-8.49 85.37-25.22 124.95c-16.17 38.22-39.31 72.55-68.79 102.03-29.48 29.48-63.81 52.63-102.03 68.79-39.57 16.74-81.61 25.22-124.95 25.22s-85.37-8.49-124.95-25.22c-38.22-16.17-72.55-39.31-102.03-68.79-29.48-29.48-52.63-63.81-68.79-102.03-16.74-39.57-25.22-81.61-25.22-124.95s8.49-85.37 25.22-124.95c16.17-38.22 39.31-72.55 68.79-102.03 29.48-29.48 63.81-52.63 102.03-68.79C1277.62 12.98 1319.66 4.5 1363 4.5m0-4c-179.49 0-325 145.51-325 325s145.51 325 325 325 325-145.51 325-325S1542.49.5 1363 .5z" id="r1"/><path d="M1363 68.61c34.68 0 68.32 6.79 99.99 20.19 30.59 12.94 58.06 31.46 81.66 55.05 23.59 23.59 42.12 51.07 55.05 81.66 13.39 31.67 20.19 65.31 20.19 99.99s-6.79 68.32-20.19 99.99c-12.94 30.59-31.46 58.06-55.05 81.66s-51.07 42.12-81.66 55.05c-31.67 13.39-65.31 20.19-99.99 20.19s-68.32-6.79-99.99-20.19c-30.59-12.94-58.06-31.46-81.66-55.05s-42.12-51.07-55.05-81.66c-13.39-31.67-20.19-65.31-20.19-99.99s6.79-68.32 20.19-99.99c12.94-30.59 31.46-58.06 55.05-81.66 23.59-23.59 51.07-42.12 81.66-55.05 31.67-13.39 65.31-20.19 99.99-20.19m0-4c-144.08 0-260.89 116.8-260.89 260.89s116.8 260.89 260.89 260.89 260.89-116.8 260.89-260.89S1507.09 64.61 1363 64.61z" id="r2"/><path d="M1363 132.23c26.09 0 51.4 5.11 75.23 15.19 23.01 9.73 43.68 23.67 61.43 41.42s31.69 38.42 41.42 61.43c10.08 23.82 15.19 49.13 15.19 75.23s-5.11 51.4-15.19 75.23c-9.73 23.01-23.67 43.68-41.42 61.43s-38.42 31.69-61.43 41.42c-23.82 10.08-49.13 15.19-75.23 15.19s-51.4-5.11-75.23-15.19c-23.01-9.73-43.68-23.67-61.43-41.42s-31.69-38.42-41.42-61.43c-10.08-23.82-15.19-49.13-15.19-75.23s5.11-51.4 15.19-75.23c9.73-23.01 23.67-43.68 41.42-61.43s38.42-31.69 61.43-41.42c23.82-10.08 49.13-15.19 75.23-15.19m0-4c-108.95 0-197.27 88.32-197.27 197.27s88.32 197.27 197.27 197.27 197.27-88.32 197.27-197.27-88.32-197.27-197.27-197.27z" id="r3"/><path d="M1363 196.34c34.5 0 66.93 13.43 91.33 37.83s37.83 56.83 37.83 91.33-13.43 66.93-37.83 91.33-56.83 37.83-91.33 37.83-66.93-13.43-91.33-37.83-37.83-56.83-37.83-91.33 13.43-66.93 37.83-91.33 56.83-37.83 91.33-37.83m0-4c-73.54 0-133.16 59.62-133.16 133.16s59.62 133.16 133.16 133.16 133.16-59.62 133.16-133.16-59.62-133.16-133.16-133.16z" id="r4"/><path d="M1363 260.46c35.87 0 65.04 29.18 65.04 65.04s-29.18 65.04-65.04 65.04-65.04-29.18-65.04-65.04 29.18-65.04 65.04-65.04m0-4c-38.13 0-69.04 30.91-69.04 69.04s30.91 69.04 69.04 69.04 69.04-30.91 69.04-69.04-30.91-69.04-69.04-69.04z" id="r5"/></g><g id="footer-circle-mid" fill="#fff"><path d="M844 4.5c43.34 0 85.37 8.49 124.95 25.22 38.22 16.17 72.55 39.31 102.03 68.79 29.48 29.48 52.63 63.81 68.79 102.03 16.74 39.57 25.22 81.61 25.22 124.95s-8.49 85.37-25.22 124.95c-16.17 38.22-39.31 72.55-68.79 102.03-29.48 29.48-63.81 52.63-102.03 68.79C929.38 638 887.34 646.48 844 646.48s-85.37-8.49-124.95-25.22c-38.22-16.17-72.55-39.31-102.03-68.79-29.48-29.48-52.63-63.81-68.79-102.03-16.74-39.57-25.22-81.61-25.22-124.95s8.49-85.37 25.22-124.95c16.17-38.22 39.31-72.55 68.79-102.03 29.48-29.48 63.81-52.63 102.03-68.79C758.62 12.98 800.66 4.5 844 4.5m0-4c-179.49 0-325 145.51-325 325s145.51 325 325 325 325-145.51 325-325S1023.49.5 844 .5z" id="m1"/><path d="M844 68.61c34.68 0 68.32 6.79 99.99 20.19 30.59 12.94 58.06 31.46 81.66 55.05 23.59 23.59 42.12 51.07 55.05 81.66 13.39 31.67 20.19 65.31 20.19 99.99s-6.79 68.32-20.19 99.99c-12.94 30.59-31.46 58.06-55.05 81.66-23.59 23.59-51.07 42.12-81.66 55.05-31.67 13.39-65.31 20.19-99.99 20.19s-68.32-6.79-99.99-20.19c-30.59-12.94-58.06-31.46-81.66-55.05s-42.12-51.07-55.05-81.66c-13.39-31.67-20.19-65.31-20.19-99.99s6.79-68.32 20.19-99.99c12.94-30.59 31.46-58.06 55.05-81.66 23.59-23.59 51.07-42.12 81.66-55.05 31.67-13.39 65.31-20.19 99.99-20.19m0-4c-144.08 0-260.89 116.8-260.89 260.89S699.91 586.39 844 586.39s260.89-116.8 260.89-260.89S988.09 64.61 844 64.61z" id="m2"/><path d="M844 132.23c26.09 0 51.4 5.11 75.23 15.19 23.01 9.73 43.68 23.67 61.43 41.42s31.69 38.42 41.42 61.43c10.08 23.82 15.19 49.13 15.19 75.23s-5.11 51.4-15.19 75.23c-9.73 23.01-23.67 43.68-41.42 61.43s-38.42 31.69-61.43 41.42c-23.82 10.08-49.13 15.19-75.23 15.19s-51.4-5.11-75.23-15.19c-23.01-9.73-43.68-23.67-61.43-41.42s-31.69-38.42-41.42-61.43c-10.08-23.82-15.19-49.13-15.19-75.23s5.11-51.4 15.19-75.23c9.73-23.01 23.67-43.68 41.42-61.43s38.42-31.69 61.43-41.42c23.82-10.08 49.13-15.19 75.23-15.19m0-4c-108.95 0-197.27 88.32-197.27 197.27S735.05 522.77 844 522.77s197.27-88.32 197.27-197.27S952.95 128.23 844 128.23z" id="m3"/></g><g id="footer-circle-left"><path d="M325 4.5c43.34 0 85.37 8.49 124.95 25.22 38.22 16.17 72.55 39.31 102.03 68.79 29.48 29.48 52.63 63.81 68.79 102.03 16.74 39.57 25.22 81.61 25.22 124.95s-8.49 85.37-25.22 124.95c-16.17 38.22-39.31 72.55-68.79 102.03-29.48 29.48-63.81 52.63-102.03 68.79C410.38 638 368.34 646.48 325 646.48s-85.37-8.49-124.95-25.22c-38.22-16.17-72.55-39.31-102.03-68.79-29.48-29.48-52.63-63.81-68.79-102.03-16.74-39.57-25.22-81.61-25.22-124.95s8.49-85.37 25.22-124.95c16.17-38.22 39.31-72.55 68.79-102.03 29.48-29.48 63.81-52.63 102.03-68.79C239.62 12.98 281.66 4.5 325 4.5m0-4C145.51.5 0 146.01 0 325.5s145.51 325 325 325 325-145.51 325-325S504.49.5 325 .5z" fill="#fff" id="l1"/></g></svg>