<?xml version="1.0" encoding="UTF-8"?><svg id="a" xmlns="http://www.w3.org/2000/svg" viewBox="0 0 150 33.18"><path d="M97.35,14.61c0-1.4-1.13-2.55-2.55-2.55s-2.55,1.13-2.55,2.55,1.13,2.55,2.55,2.55,2.55-1.13,2.55-2.55M91.7,14.61c0-1.71,1.4-3.1,3.1-3.1s3.1,1.4,3.1,3.1-1.4,3.1-3.1,3.1-3.1-1.4-3.1-3.1" style="fill:#b7d3ff;"/><path d="M108.86,14.61c0-7.76-6.32-14.06-14.06-14.06s-14.06,6.32-14.06,14.06,6.32,14.06,14.06,14.06,14.06-6.32,14.06-14.06M80.19,14.61c0-8.07,6.56-14.61,14.61-14.61s14.61,6.56,14.61,14.61-6.56,14.61-14.61,14.61-14.61-6.56-14.61-14.61" style="fill:#b7d3ff;"/><path d="M106,14.61c0-6.16-5.01-11.18-11.18-11.18s-11.18,5.01-11.18,11.18,5.01,11.18,11.18,11.18,11.18-5.01,11.18-11.18M83.07,14.61c0-6.48,5.28-11.73,11.73-11.73s11.73,5.28,11.73,11.73-5.28,11.73-11.73,11.73-11.73-5.28-11.73-11.73" style="fill:#b7d3ff;"/><path d="M103.12,14.61c0-4.59-3.73-8.32-8.32-8.32s-8.32,3.73-8.32,8.32,3.73,8.32,8.32,8.32,8.32-3.73,8.32-8.32M85.93,14.61c0-4.88,3.97-8.87,8.87-8.87s8.87,3.97,8.87,8.87-3.97,8.87-8.87,8.87-8.87-3.97-8.87-8.87" style="fill:#b7d3ff;"/><path d="M100.24,14.61c0-2.99-2.44-5.43-5.43-5.43s-5.43,2.44-5.43,5.43,2.44,5.43,5.43,5.43,5.43-2.44,5.43-5.43M88.82,14.61c0-3.3,2.68-5.99,5.99-5.99s5.99,2.68,5.99,5.99-2.68,5.99-5.99,5.99-5.99-2.68-5.99-5.99" style="fill:#b7d3ff;"/><path d="M88.82,14.61c0-7.76-6.32-14.06-14.06-14.06s-14.06,6.32-14.06,14.06,6.32,14.06,14.06,14.06,14.06-6.32,14.06-14.06M60.14,14.61c0-8.07,6.56-14.61,14.61-14.61s14.61,6.56,14.61,14.61-6.56,14.61-14.61,14.61-14.61-6.56-14.61-14.61" style="fill:#66a2ff;"/><path d="M85.93,14.61c0-6.16-5.01-11.18-11.18-11.18s-11.18,5.01-11.18,11.18,5.01,11.18,11.18,11.18,11.18-5.01,11.18-11.18M63.02,14.61c0-6.48,5.28-11.73,11.73-11.73s11.73,5.28,11.73,11.73-5.28,11.73-11.73,11.73-11.73-5.28-11.73-11.73" style="fill:#66a2ff;"/><path d="M83.07,14.61c0-4.59-3.73-8.32-8.32-8.32s-8.32,3.73-8.32,8.32,3.73,8.32,8.32,8.32,8.32-3.73,8.32-8.32M65.89,14.61c0-4.88,3.97-8.87,8.87-8.87s8.87,3.97,8.87,8.87-3.97,8.87-8.87,8.87-8.87-3.97-8.87-8.87" style="fill:#66a2ff;"/><path d="M80.19,14.61c0-2.99-2.44-5.43-5.43-5.43s-5.43,2.44-5.43,5.43,2.44,5.43,5.43,5.43,5.43-2.44,5.43-5.43M68.77,14.61c0-3.3,2.68-5.99,5.99-5.99s5.99,2.68,5.99,5.99-2.68,5.99-5.99,5.99-5.99-2.68-5.99-5.99" style="fill:#66a2ff;"/><path d="M68.77,14.61c0-7.76-6.32-14.06-14.06-14.06s-14.06,6.32-14.06,14.06,6.32,14.06,14.06,14.06,14.06-6.32,14.06-14.06M40.09,14.61c0-8.07,6.56-14.61,14.61-14.61s14.61,6.56,14.61,14.61-6.56,14.61-14.61,14.61-14.61-6.56-14.61-14.61" style="fill:#0066fd;"/><path d="M65.89,14.61c0-6.16-5.01-11.18-11.18-11.18s-11.18,5.01-11.18,11.18,5.01,11.18,11.18,11.18,11.18-5.01,11.18-11.18M42.98,14.61c0-6.48,5.28-11.73,11.73-11.73s11.73,5.28,11.73,11.73-5.28,11.73-11.73,11.73-11.73-5.28-11.73-11.73" style="fill:#0066fd;"/><path d="M63.02,14.61c0-4.59-3.73-8.32-8.32-8.32s-8.32,3.73-8.32,8.32,3.73,8.32,8.32,8.32,8.32-3.73,8.32-8.32M45.84,14.61c0-4.88,3.97-8.87,8.87-8.87s8.87,3.97,8.87,8.87-3.97,8.87-8.87,8.87-8.87-3.97-8.87-8.87" style="fill:#0066fd;"/><path d="M48.72,14.61c0-7.76-6.32-14.06-14.06-14.06s-14.06,6.32-14.06,14.06,6.32,14.06,14.06,14.06,14.06-6.32,14.06-14.06M20.05,14.61c0-8.07,6.56-14.61,14.61-14.61s14.61,6.56,14.61,14.61-6.56,14.61-14.61,14.61-14.61-6.56-14.61-14.61" style="fill:#003eff;"/><path d="M45.84,14.61c0-6.16-5.01-11.18-11.18-11.18s-11.18,5.01-11.18,11.18,5.01,11.18,11.18,11.18,11.18-5.01,11.18-11.18M22.93,14.61c0-6.48,5.28-11.73,11.73-11.73s11.73,5.28,11.73,11.73-5.28,11.73-11.73,11.73-11.73-5.28-11.73-11.73" style="fill:#003eff;"/><path d="M28.67,14.61C28.67,6.85,22.35.55,14.61.55S.55,6.87.55,14.61s6.32,14.06,14.06,14.06,14.06-6.32,14.06-14.06M0,14.61C0,6.54,6.56,0,14.61,0s14.61,6.56,14.61,14.61-6.56,14.61-14.61,14.61S0,22.66,0,14.61" style="fill:#021bc3;"/><rect width="150" height="33.18" style="fill:#fff; opacity:0;"/></svg>