<?xml version="1.0" encoding="UTF-8"?><svg id="a" xmlns="http://www.w3.org/2000/svg" viewBox="0 0 150 63.82"><rect width="150" height="63.82" style="fill:#fff; opacity:0;"/><path d="M59.99,8.23c0-3.57,1.88-6.08,6.25-6.34,4.28.09,7.23,1.69,9.74,4.19l5.43,6.34h.62l-1.88-9.2c-4.19-1.6-9-3.13-11.42-3.22-8.74,1.6-14.37,6.96-14.37,13.13,0,11.33,22.66,12.49,22.66,20.89s-3.3,8.56-7.14,8.56c-3.39-.09-7.85-2.59-10.53-4.99l-4.19-9.18-.62.09-.18,10.36c1.51,1.51,8.56,5.43,13.31,5.43,9.47-1.6,15.97-5.72,15.97-14.1.18-11.15-23.64-13.84-23.64-21.95M85.84,43.04h19.8v-.44l-5.9-.98V1.29l-1.06-.18h-11.95v.53l5.08.98v39.01l-5.99.98v.44h.02ZM134.54,15.99c0,8.21-4.1,13.75-10.09,13.75s-9.74-6.08-9.74-14.99,3.75-13.22,9.74-13.22,10.09,4.63,10.09,14.46M118.64,43.22c14.55.09,22.49.98,22.49,8.21s-3.75,10.09-16.23,9.74c-5.63-.18-10.53-3.84-10.53-9.82s1.24-5.34,4.28-8.12M149.98,1.35L145.25.02c0,2.24-2.95,2.59-4.99,2.59s-4.19-.27-6.25-.89c-2.51-1.06-5.54-1.69-8.91-1.69-5.43,0-18.47,7.41-18.47,16.41s3.66,11.15,9.91,13.48c-1.88,2.06-4.37,4.19-5.81,6.7,0,2.86,3.3,6.61,5.34,6.61h.53c-3.39,2.33-7.5,4.37-10.53,6.87,0,7.85,2.51,12.66,18.03,13.22,1.15,0,2.33,0,3.48-.09,3.3,0,20.07-5.63,20.27-14.1.18-9.2-8.29-11.33-20.16-11.78-2.24-.09-10.09-.44-10.89-.53-1.06-.09-2.15-.44-2.15-1.88.09-2.33,1.33-3.48,2.77-4.63,2.06.62,4.37.98,6.87.98,4.99,0,18.38-9.38,18.38-16.88s-1.88-7.94-5.08-10.53c.35-.09.8-.09,1.24-.09,1.06,0,6.79,1.69,8.29,1.69,1.15-.09,2.24-1.33,2.86-4.1" style="fill:#fff;"/></svg>