<?xml version="1.0" encoding="UTF-8"?><svg id="footer-circles" xmlns="http://www.w3.org/2000/svg" viewBox="0 0 1688 650"><rect id="bg" y=".5" width="1688" height="650" style="fill:#fff; opacity:0;"/><g id="footer-circle-right"><g id="r1"><path d="M1363,4.5c43.34,0,85.37,8.49,124.95,25.22,38.22,16.17,72.55,39.31,102.03,68.79,29.48,29.48,52.63,63.81,68.79,102.03,16.74,39.57,25.22,81.61,25.22,124.95s-8.49,85.37-25.22,124.95c-16.17,38.22-39.31,72.55-68.79,102.03-29.48,29.48-63.81,52.63-102.03,68.79-39.57,16.74-81.61,25.22-124.95,25.22s-85.37-8.49-124.95-25.22c-38.22-16.17-72.55-39.31-102.03-68.79-29.48-29.48-52.63-63.81-68.79-102.03-16.74-39.57-25.22-81.61-25.22-124.95s8.49-85.37,25.22-124.95c16.17-38.22,39.31-72.55,68.79-102.03,29.48-29.48,63.81-52.63,102.03-68.79,39.57-16.74,81.61-25.22,124.95-25.22M1363,.5c-179.49,0-325,145.51-325,325s145.51,325,325,325,325-145.51,325-325S1542.49.5,1363,.5h0Z" style="fill:#fff;"/></g><g id="r2"><path d="M1363,68.61c34.68,0,68.32,6.79,99.99,20.19,30.59,12.94,58.06,31.46,81.66,55.05,23.59,23.59,42.12,51.07,55.05,81.66,13.39,31.67,20.19,65.31,20.19,99.99s-6.79,68.32-20.19,99.99c-12.94,30.59-31.46,58.06-55.05,81.66s-51.07,42.12-81.66,55.05c-31.67,13.39-65.31,20.19-99.99,20.19s-68.32-6.79-99.99-20.19c-30.59-12.94-58.06-31.46-81.66-55.05s-42.12-51.07-55.05-81.66c-13.39-31.67-20.19-65.31-20.19-99.99s6.79-68.32,20.19-99.99c12.94-30.59,31.46-58.06,55.05-81.66,23.59-23.59,51.07-42.12,81.66-55.05,31.67-13.39,65.31-20.19,99.99-20.19M1363,64.61c-144.08,0-260.89,116.8-260.89,260.89s116.8,260.89,260.89,260.89,260.89-116.8,260.89-260.89-116.8-260.89-260.89-260.89h0Z" style="fill:#fff;"/></g><g id="r3"><path d="M1363,132.23c26.09,0,51.4,5.11,75.23,15.19,23.01,9.73,43.68,23.67,61.43,41.42,17.75,17.75,31.69,38.42,41.42,61.43,10.08,23.82,15.19,49.13,15.19,75.23s-5.11,51.4-15.19,75.23c-9.73,23.01-23.67,43.68-41.42,61.43-17.75,17.75-38.42,31.69-61.43,41.42-23.82,10.08-49.13,15.19-75.23,15.19s-51.4-5.11-75.23-15.19c-23.01-9.73-43.68-23.67-61.43-41.42-17.75-17.75-31.69-38.42-41.42-61.43-10.08-23.82-15.19-49.13-15.19-75.23s5.11-51.4,15.19-75.23c9.73-23.01,23.67-43.68,41.42-61.43,17.75-17.75,38.42-31.69,61.43-41.42,23.82-10.08,49.13-15.19,75.23-15.19M1363,128.23c-108.95,0-197.27,88.32-197.27,197.27s88.32,197.27,197.27,197.27,197.27-88.32,197.27-197.27-88.32-197.27-197.27-197.27h0Z" style="fill:#fff;"/></g><g id="r4"><path d="M1363,196.34c34.5,0,66.93,13.43,91.33,37.83s37.83,56.83,37.83,91.33-13.43,66.93-37.83,91.33-56.83,37.83-91.33,37.83-66.93-13.43-91.33-37.83-37.83-56.83-37.83-91.33,13.43-66.93,37.83-91.33,56.83-37.83,91.33-37.83M1363,192.34c-73.54,0-133.16,59.62-133.16,133.16s59.62,133.16,133.16,133.16,133.16-59.62,133.16-133.16-59.62-133.16-133.16-133.16h0Z" style="fill:#fff;"/></g><g id="r5"><path d="M1363,260.46c35.87,0,65.04,29.18,65.04,65.04s-29.18,65.04-65.04,65.04-65.04-29.18-65.04-65.04,29.18-65.04,65.04-65.04M1363,256.46c-38.13,0-69.04,30.91-69.04,69.04s30.91,69.04,69.04,69.04,69.04-30.91,69.04-69.04-30.91-69.04-69.04-69.04h0Z" style="fill:#fff;"/></g></g><g id="footer-circle-mid"><g id="m1"><path d="M844,4.5c43.34,0,85.37,8.49,124.95,25.22,38.22,16.17,72.55,39.31,102.03,68.79,29.48,29.48,52.63,63.81,68.79,102.03,16.74,39.57,25.22,81.61,25.22,124.95s-8.49,85.37-25.22,124.95c-16.17,38.22-39.31,72.55-68.79,102.03-29.48,29.48-63.81,52.63-102.03,68.79-39.57,16.74-81.61,25.22-124.95,25.22s-85.37-8.49-124.95-25.22c-38.22-16.17-72.55-39.31-102.03-68.79-29.48-29.48-52.63-63.81-68.79-102.03-16.74-39.57-25.22-81.61-25.22-124.95s8.49-85.37,25.22-124.95c16.17-38.22,39.31-72.55,68.79-102.03,29.48-29.48,63.81-52.63,102.03-68.79,39.57-16.74,81.61-25.22,124.95-25.22M844,.5c-179.49,0-325,145.51-325,325s145.51,325,325,325,325-145.51,325-325S1023.49.5,844,.5h0Z" style="fill:#fff;"/></g><g id="m2"><path d="M844,68.61c34.68,0,68.32,6.79,99.99,20.19,30.59,12.94,58.06,31.46,81.66,55.05,23.59,23.59,42.12,51.07,55.05,81.66,13.39,31.67,20.19,65.31,20.19,99.99s-6.79,68.32-20.19,99.99c-12.94,30.59-31.46,58.06-55.05,81.66-23.59,23.59-51.07,42.12-81.66,55.05-31.67,13.39-65.31,20.19-99.99,20.19s-68.32-6.79-99.99-20.19c-30.59-12.94-58.06-31.46-81.66-55.05s-42.12-51.07-55.05-81.66c-13.39-31.67-20.19-65.31-20.19-99.99s6.79-68.32,20.19-99.99c12.94-30.59,31.46-58.06,55.05-81.66,23.59-23.59,51.07-42.12,81.66-55.05,31.67-13.39,65.31-20.19,99.99-20.19M844,64.61c-144.08,0-260.89,116.8-260.89,260.89s116.8,260.89,260.89,260.89,260.89-116.8,260.89-260.89-116.8-260.89-260.89-260.89h0Z" style="fill:#fff;"/></g><g id="m3"><path d="M844,132.23c26.09,0,51.4,5.11,75.23,15.19,23.01,9.73,43.68,23.67,61.43,41.42,17.75,17.75,31.69,38.42,41.42,61.43,10.08,23.82,15.19,49.13,15.19,75.23s-5.11,51.4-15.19,75.23c-9.73,23.01-23.67,43.68-41.42,61.43-17.75,17.75-38.42,31.69-61.43,41.42-23.82,10.08-49.13,15.19-75.23,15.19s-51.4-5.11-75.23-15.19c-23.01-9.73-43.68-23.67-61.43-41.42-17.75-17.75-31.69-38.42-41.42-61.43-10.08-23.82-15.19-49.13-15.19-75.23s5.11-51.4,15.19-75.23c9.73-23.01,23.67-43.68,41.42-61.43,17.75-17.75,38.42-31.69,61.43-41.42,23.82-10.08,49.13-15.19,75.23-15.19M844,128.23c-108.95,0-197.27,88.32-197.27,197.27s88.32,197.27,197.27,197.27,197.27-88.32,197.27-197.27-88.32-197.27-197.27-197.27h0Z" style="fill:#fff;"/></g></g><g id="footer-circle-left"><g id="l1"><path d="M325,4.5c43.34,0,85.37,8.49,124.95,25.22,38.22,16.17,72.55,39.31,102.03,68.79,29.48,29.48,52.63,63.81,68.79,102.03,16.74,39.57,25.22,81.61,25.22,124.95s-8.49,85.37-25.22,124.95c-16.17,38.22-39.31,72.55-68.79,102.03-29.48,29.48-63.81,52.63-102.03,68.79-39.57,16.74-81.61,25.22-124.95,25.22s-85.37-8.49-124.95-25.22c-38.22-16.17-72.55-39.31-102.03-68.79-29.48-29.48-52.63-63.81-68.79-102.03-16.74-39.57-25.22-81.61-25.22-124.95s8.49-85.37,25.22-124.95c16.17-38.22,39.31-72.55,68.79-102.03,29.48-29.48,63.81-52.63,102.03-68.79,39.57-16.74,81.61-25.22,124.95-25.22M325,.5C145.51.5,0,146.01,0,325.5s145.51,325,325,325,325-145.51,325-325S504.49.5,325,.5h0Z" style="fill:#fff;"/></g></g></svg>